HIERARCHY
ROOT root
{
	OFFSET	0	13.1	24.9
	CHANNELS 6  Xposition Yposition Zposition Xrotation Yrotation Zrotation
	JOINT spine_1
	{
		OFFSET	0	9.99999	0
		CHANNELS 3  Xrotation Yrotation Zrotation
		JOINT spine_2
		{
			OFFSET	0	112	-10
			CHANNELS 3  Xrotation Yrotation Zrotation
			JOINT spine_3
			{
				OFFSET	0	206.5	19.3
				CHANNELS 3  Xrotation Yrotation Zrotation
				JOINT spine_4
				{
					OFFSET	0	110.4	14.6
					CHANNELS 3  Xrotation Yrotation Zrotation
					JOINT neck_1
					{
						OFFSET	0	71.8	-50.3
						CHANNELS 3  Xrotation Yrotation Zrotation
						JOINT neck_2
						{
							OFFSET	0	86.2	-25.8
							CHANNELS 3  Xrotation Yrotation Zrotation
							JOINT head_ee
							{
								OFFSET	0	179.8	-8.7
								CHANNELS 3  Xrotation Yrotation Zrotation
								End Site
								{
									OFFSET	1	0	0
								}
							}
						}
					}
					JOINT left_clavicle
					{
						OFFSET	-43.2	22.4	-70.8
						CHANNELS 3  Xrotation Yrotation Zrotation
						JOINT left_shoulder
						{
							OFFSET	-93.9	-5.79999	48.7
							CHANNELS 3  Xrotation Yrotation Zrotation
							JOINT left_elbow
							{
								OFFSET	-291.4	-30.8	15.2
								CHANNELS 3  Xrotation Yrotation Zrotation
								JOINT left_lowarm_twist
								{
									OFFSET	-110.7	-3.89999	13.6
									CHANNELS 3  Xrotation Yrotation Zrotation
									JOINT left_hand
									{
										OFFSET	-110.7	-3.89999	13.6
										CHANNELS 3  Xrotation Yrotation Zrotation
										JOINT left_ee
										{
											OFFSET	-80.8	-5.10001	12.1
											CHANNELS 3  Xrotation Yrotation Zrotation
											End Site
											{
												OFFSET	1	0	0
											}
										}
									}
								}
							}
						}
					}
					JOINT right_clavicle
					{
						OFFSET	43.2	22.4	-70.8
						CHANNELS 3  Xrotation Yrotation Zrotation
						JOINT right_shoulder
						{
							OFFSET	93.9	-5.79999	48.7
							CHANNELS 3  Xrotation Yrotation Zrotation
							JOINT right_elbow
							{
								OFFSET	291.4	-30.8	15.2
								CHANNELS 3  Xrotation Yrotation Zrotation
								JOINT right_lowarm_twist
								{
									OFFSET	110.7	-3.89999	13.6
									CHANNELS 3  Xrotation Yrotation Zrotation
									JOINT right_hand
									{
										OFFSET	110.7	-3.89999	13.6
										CHANNELS 3  Xrotation Yrotation Zrotation
										JOINT right_ee
										{
											OFFSET	80.8	-5.10001	12.1
											CHANNELS 3  Xrotation Yrotation Zrotation
											End Site
											{
												OFFSET	1	0	0
											}
										}
									}
								}
							}
						}
					}
				}
			}
		}
	}
	JOINT left_hip
	{
		OFFSET	-82.8	-127.5	0.300001
		CHANNELS 3  Xrotation Yrotation Zrotation
		JOINT left_knee
		{
			OFFSET	-28.2	-396.7	2.2
			CHANNELS 3  Xrotation Yrotation Zrotation
			JOINT left_ankle
			{
				OFFSET	-11.7	-411.3	35.4
				CHANNELS 3  Xrotation Yrotation Zrotation
				JOINT left_toes
				{
					OFFSET	0	-60	-88.6
					CHANNELS 3  Xrotation Yrotation Zrotation
					JOINT left_foot_ee
					{
						OFFSET	-22.5	-16.5	-42.2
						CHANNELS 3  Xrotation Yrotation Zrotation
						End Site
						{
							OFFSET	1	0	0
						}
					}
				}
			}
		}
	}
	JOINT right_hip
	{
		OFFSET	82.8	-127.5	0.300001
		CHANNELS 3  Xrotation Yrotation Zrotation
		JOINT right_knee
		{
			OFFSET	28.2	-396.7	2.2
			CHANNELS 3  Xrotation Yrotation Zrotation
			JOINT right_ankle
			{
				OFFSET	11.7	-411.3	35.4
				CHANNELS 3  Xrotation Yrotation Zrotation
				JOINT right_toes
				{
					OFFSET	0	-60	-88.6
					CHANNELS 3  Xrotation Yrotation Zrotation
					JOINT right_foot_ee
					{
						OFFSET	22.5	-16.5	-42.2
						CHANNELS 3  Xrotation Yrotation Zrotation
						End Site
						{
							OFFSET	1	0	0
						}
					}
				}
			}
		}
	}
}
MOTION
Frames: 15
Frame Time: 0.02
1227.7799606 744.325 -1785.3070705 9.28128267714 28.6422376665 -2.98710284046 -5.78111 -0.32517 -0.791055 -5.7808 -0.274175 -0.810142 -5.77603 -0.0117828 -0.855195 -5.77703 -0.146692 -0.842603 0.120095 14.8871 7.61112 0.489162 20.3298 9.66707 -0.0 0.0 -0.0 7.7652 19.0147 14.0355 -14.2703 -23.673 60.1537 0.820126 -22.1101 0.160237 12.7604 0.271971 -1.60398 9.06069 -25.9858 53.6034 -0.0 0.0 -0.0 7.65223 14.3075 -14.5813 -21.8598 55.9255 -42.8005 0.622017 17.1257 -0.0936596 -22.8119 1.33492 -2.57402 -8.76349 -21.1815 50.3651 0.0 0.0 0.0 9.15115 -2.25637 -5.59416 -45.8348 -0.879065 6.79499 18.0651 26.6268 -2.63632 -12.8673 0.0 0.0 -0.0 0.0 -0.0 22.2194 40.1542 -22.5887 -37.4597 0.313113 -5.63935 20.5892 -23.6794 2.92509 2.84569 -0.0 -0.0 0.0 0.0 0.0 
1215.07680843 740.575 -1797.74433414 8.82593719271 28.8890895211 -2.85380264099 -5.60496 -0.289135 -0.686606 -5.60473 -0.24486 -0.703611 -5.60106 -0.0189168 -0.744758 -5.60181 -0.136297 -0.732425 1.43518 14.7116 4.89168 1.84643 21.9352 6.56737 -0.0 0.0 -0.0 8.24142 20.1955 14.6519 -15.9885 -22.8174 59.3478 0.649867 -17.8447 0.102027 11.2093 0.258088 -1.40635 9.03132 -25.3498 54.086 -0.0 0.0 -0.0 7.76102 15.738 -14.7365 -20.0285 54.6971 -38.7259 0.706273 19.2833 -0.119987 -22.8488 1.33789 -2.5777 -8.21766 -20.4446 46.0718 0.0 0.0 0.0 20.3418 3.28756 -10.4162 -52.0073 -1.40145 7.58837 15.5669 18.8915 -2.21026 -12.849 0.0 0.0 -0.0 0.0 -0.0 10.7862 43.2564 -16.042 -24.9007 -0.205372 -3.78573 22.4153 -23.4723 3.15611 1.11971 -0.0 -0.0 0.0 0.0 0.0 
1212.20373628 740.575 -1796.33010722 8.86980354118 29.3945161232 -2.9438814281 -5.60496 -0.289135 -0.686606 -5.60473 -0.24486 -0.703611 -5.60106 -0.0189168 -0.744758 -5.60181 -0.136297 -0.732425 1.43518 14.7116 4.89168 1.84643 21.9352 6.56737 -0.0 0.0 -0.0 8.24142 20.1955 14.6519 -15.9885 -22.8174 59.3478 0.649867 -17.8447 0.102027 11.2093 0.258088 -1.40635 9.03132 -25.3498 54.086 -0.0 0.0 -0.0 7.76102 15.738 -14.7365 -20.0285 54.6971 -38.7259 0.706273 19.2833 -0.119987 -22.8488 1.33789 -2.5777 -8.21766 -20.4446 46.0718 0.0 0.0 0.0 20.3418 3.28756 -10.4162 -52.0073 -1.40145 7.58837 15.5669 18.8915 -2.21026 -12.849 0.0 0.0 -0.0 0.0 -0.0 10.7862 43.2564 -16.042 -24.9007 -0.205372 -3.78573 22.4153 -23.4723 3.15611 1.11971 -0.0 -0.0 0.0 0.0 0.0 
1199.78006397 740.575 -1789.83976754 9.07553832425 31.6062325717 -3.34915827141 -5.60496 -0.289135 -0.686606 -5.60473 -0.24486 -0.703611 -5.60106 -0.0189168 -0.744758 -5.60181 -0.136297 -0.732425 1.43518 14.7116 4.89168 1.84643 21.9352 6.56737 -0.0 0.0 -0.0 8.24142 20.1955 14.6519 -15.9885 -22.8174 59.3478 0.649867 -17.8447 0.102027 11.2093 0.258088 -1.40635 9.03132 -25.3498 54.086 -0.0 0.0 -0.0 7.76102 15.738 -14.7365 -20.0285 54.6971 -38.7259 0.706273 19.2833 -0.119987 -22.8488 1.33789 -2.5777 -8.21766 -20.4446 46.0718 0.0 0.0 0.0 20.3418 3.28756 -10.4162 -52.0073 -1.40145 7.58837 15.5669 18.8915 -2.21026 -12.849 0.0 0.0 -0.0 0.0 -0.0 10.7862 43.2564 -16.042 -24.9007 -0.205372 -3.78573 22.4153 -23.4723 3.15611 1.11971 -0.0 -0.0 0.0 0.0 0.0 
1187.54646922 747.018 -1794.50104061 6.98878103153 33.8783627999 -0.717257338402 -5.31632 -0.274993 -0.783877 -5.31601 -0.224557 -0.799785 -5.31208 0.0255296 -0.830318 -5.31303 -0.105919 -0.82393 2.49133 14.1606 1.76855 3.01094 23.3437 2.93731 -0.0 0.0 -0.0 8.82274 18.8348 15.7396 -16.939 -22.3132 58.9625 0.46665 -13.0163 0.0532358 10.8843 0.254502 -1.36499 9.17628 -24.6185 56.4908 -0.0 0.0 -0.0 7.82391 16.0011 -14.8576 -17.6256 53.9337 -34.6127 0.866163 23.2226 -0.177979 -22.8369 1.33693 -2.57651 -8.02625 -20.981 43.7075 0.0 0.0 0.0 27.8898 8.47054 -13.6264 -50.8751 -1.29923 7.44705 11.5334 14.5077 -1.64175 -12.6539 0.0 0.0 -0.0 0.0 -0.0 11.0576 44.9076 -15.1153 -14.4228 -0.320374 -2.18434 22.3452 -24.0064 3.15606 -1.93695 0.0 0.0 0.0 0.0 0.0 
1167.77677053 739.187 -1794.99513003 5.72199408844 35.1963517139 0.744440299998 -5.23647 -0.265216 -0.830662 -5.23611 -0.211823 -0.845854 -5.23212 0.0502754 -0.870521 -5.23317 -0.0878328 -0.867537 3.35821 13.9086 -0.55059 4.04394 24.6923 0.168791 -0.0 0.0 -0.0 9.24819 17.8508 16.562 -17.4801 -22.0299 58.8992 0.329373 -9.26701 0.0266947 10.6732 0.252047 -1.33815 9.32006 -23.9341 58.9663 -0.0 0.0 -0.0 7.80275 15.4352 -14.8449 -16.7783 53.1772 -32.6977 0.968669 25.6336 -0.220379 -22.9448 1.34561 -2.58728 -7.94692 -21.5381 42.3736 0.0 0.0 0.0 33.7173 11.8123 -16.5625 -50.0463 -1.2262 7.34237 7.90521 12.1631 -1.13451 -12.6349 0.0 0.0 -0.0 0.0 -0.0 10.8423 46.2195 -14.314 -8.64315 -0.258207 -1.30007 23.0625 -23.8978 3.24514 -3.80362 0.0 0.0 0.0 0.0 0.0 
1120.14206244 750.657 -1808.77189958 2.77145305405 37.1606938333 2.80723333138 -5.03792 -0.208388 -0.666229 -5.03768 -0.165573 -0.678139 -5.03519 0.0419702 -0.696795 -5.03586 -0.0685996 -0.694679 4.41649 13.3138 -3.61813 5.38849 26.0906 -3.58839 -0.0 0.0 -0.0 9.9296 16.9611 17.8263 -19.3951 -21.6573 60.0236 0.171508 -4.8563 0.00727278 8.90788 0.227645 -1.11398 9.5512 -22.9289 63.182 -0.0 0.0 -0.0 7.98756 13.4344 -15.3512 -14.5781 52.87 -32.2253 1.17002 30.0953 -0.31456 -23.0747 1.35609 -2.60021 -8.15845 -22.9192 42.5313 0.0 0.0 0.0 40.6253 15.7833 -19.8532 -38.243 -0.358791 5.75074 -2.84984 11.3084 0.420205 -14.1866 0.0 0.0 -0.0 0.0 -0.0 12.593 46.0664 -15.7295 -12.3586 -0.308417 -1.86787 30.5861 -22.7294 4.1223 -3.20992 0.0 0.0 0.0 0.0 0.0 
1110.17512555 750.657 -1801.00524959 2.8377345279 38.8907227528 2.69964843605 -5.03792 -0.208388 -0.666229 -5.03768 -0.165573 -0.678139 -5.03519 0.0419702 -0.696795 -5.03586 -0.0685996 -0.694679 4.41649 13.3138 -3.61813 5.38849 26.0906 -3.58839 -0.0 0.0 -0.0 9.9296 16.9611 17.8263 -19.3951 -21.6573 60.0236 0.171508 -4.8563 0.00727278 8.90788 0.227645 -1.11398 9.5512 -22.9289 63.182 -0.0 0.0 -0.0 7.98756 13.4344 -15.3512 -14.5781 52.87 -32.2253 1.17002 30.0953 -0.31456 -23.0747 1.35609 -2.60021 -8.15845 -22.9192 42.5313 0.0 0.0 0.0 40.6253 15.7833 -19.8532 -38.243 -0.358791 5.75074 -2.84984 11.3084 0.420205 -14.1866 0.0 0.0 -0.0 0.0 -0.0 12.593 46.0664 -15.7295 -12.3586 -0.308417 -1.86787 30.5861 -22.7294 4.1223 -3.20992 0.0 0.0 0.0 0.0 0.0 
1097.2240961 743.591 -1806.05530088 3.38909093616 39.6113181664 3.6930037169 -4.96303 -0.165667 -0.610907 -4.96283 -0.126458 -0.62021 -4.96103 0.0614294 -0.629983 -4.96159 -0.0388335 -0.631778 4.63038 12.6897 -3.57533 5.533 24.9446 -3.58809 -0.0 0.0 -0.0 9.82044 16.7002 17.6798 -20.5511 -21.2359 59.9216 0.174603 -4.94352 0.00753716 7.36002 0.200574 -0.918117 9.53371 -21.5859 65.0578 -0.0 0.0 -0.0 8.53961 13.352 -16.5528 -12.5399 53.3374 -32.4367 1.35291 33.828 -0.411424 -23.1117 1.35908 -2.60389 -8.2044 -23.2278 42.5452 0.0 0.0 0.0 41.4268 14.8022 -18.7881 -31.6665 -0.0233653 4.79829 -7.99685 13.1202 1.19238 -14.9916 0.0 0.0 -0.0 0.0 -0.0 13.2638 45.9762 -17.4372 -14.7567 -0.321236 -2.23556 32.7507 -22.3524 4.35343 -2.75404 0.0 0.0 0.0 0.0 0.0 
1092.62772101 743.591 -1802.18248067 3.42905922611 40.410599131 3.63083978056 -4.96303 -0.165667 -0.610907 -4.96283 -0.126458 -0.62021 -4.96103 0.0614294 -0.629983 -4.96159 -0.0388335 -0.631778 4.63038 12.6897 -3.57533 5.533 24.9446 -3.58809 -0.0 0.0 -0.0 9.82044 16.7002 17.6798 -20.5511 -21.2359 59.9216 0.174603 -4.94352 0.00753716 7.36002 0.200574 -0.918117 9.53371 -21.5859 65.0578 -0.0 0.0 -0.0 8.53961 13.352 -16.5528 -12.5399 53.3374 -32.4367 1.35291 33.828 -0.411424 -23.1117 1.35908 -2.60389 -8.2044 -23.2278 42.5452 0.0 0.0 0.0 41.4268 14.8022 -18.7881 -31.6665 -0.0233653 4.79829 -7.99685 13.1202 1.19238 -14.9916 0.0 0.0 -0.0 0.0 -0.0 13.2638 45.9762 -17.4372 -14.7567 -0.321236 -2.23556 32.7507 -22.3524 4.35343 -2.75404 0.0 0.0 0.0 0.0 0.0 
1065.56506386 749.583 -1804.89998439 2.82555408634 41.4371756815 3.68863121785 -4.92027 -0.199684 -0.382062 -4.92021 -0.174968 -0.393994 -4.91881 -0.0517476 -0.42798 -4.91904 -0.118689 -0.414437 4.48895 11.8353 -3.17148 5.24289 23.1433 -3.10397 -0.0 0.0 -0.0 9.77113 15.3741 17.782 -21.1373 -21.1352 60.1247 0.183889 -5.20502 0.00835847 5.24495 0.155047 -0.651786 9.55274 -20.1882 67.6505 -0.0 0.0 -0.0 8.53855 12.791 -16.5739 -10.8617 53.2809 -32.775 1.49092 36.4457 -0.490873 -23.8003 1.41514 -2.67201 -8.17241 -22.5231 43.1279 0.0 0.0 0.0 40.7513 14.4427 -18.7794 -26.398 0.165092 4.01198 -11.5645 14.3477 1.73588 -15.4802 0.0 0.0 -0.0 0.0 -0.0 14.478 44.8781 -19.1553 -16.4374 -0.321044 -2.49342 33.8109 -21.985 4.45895 -2.89267 0.0 0.0 0.0 0.0 0.0 
1047.40390813 740.874 -1813.90246536 2.02526199302 42.4532362843 4.37621984265 -4.89155 -0.227882 -0.266822 -4.89154 -0.210442 -0.280782 -4.8904 -0.119023 -0.330087 -4.89051 -0.16966 -0.307147 4.38644 11.2888 -2.71693 5.03562 21.8227 -2.5717 -0.0 0.0 -0.0 9.73457 14.1982 17.874 -21.3758 -21.1021 60.0616 0.190924 -5.40298 0.00900874 3.66287 0.114578 -0.453748 9.55722 -19.2062 69.463 -0.0 0.0 -0.0 9.05432 13.0818 -17.6861 -8.77123 53.9738 -33.9008 1.61756 38.702 -0.568111 -24.2833 1.45495 -2.7194 -8.14402 -21.9822 43.537 0.0 0.0 0.0 40.7811 13.5308 -19.4788 -21.3413 0.277286 3.24435 -13.9351 15.1786 2.10016 -15.8076 0.0 0.0 -0.0 0.0 -0.0 13.7983 44.3817 -18.6492 -18.1865 -0.312814 -2.76164 34.5598 -21.7967 4.53363 -2.98304 0.0 0.0 0.0 0.0 0.0 
1043.77129487 740.874 -1810.38263077 2.0455521608 43.0705890935 4.3463357993 -4.89155 -0.227882 -0.266822 -4.89154 -0.210442 -0.280782 -4.8904 -0.119023 -0.330087 -4.89051 -0.16966 -0.307147 4.38644 11.2888 -2.71693 5.03562 21.8227 -2.5717 -0.0 0.0 -0.0 9.73457 14.1982 17.874 -21.3758 -21.1021 60.0616 0.190924 -5.40298 0.00900874 3.66287 0.114578 -0.453748 9.55722 -19.2062 69.463 -0.0 0.0 -0.0 9.05432 13.0818 -17.6861 -8.77123 53.9738 -33.9008 1.61756 38.702 -0.568111 -24.2833 1.45495 -2.7194 -8.14402 -21.9822 43.537 0.0 0.0 0.0 40.7811 13.5308 -19.4788 -21.3413 0.277286 3.24435 -13.9351 15.1786 2.10016 -15.8076 0.0 0.0 -0.0 0.0 -0.0 13.7983 44.3817 -18.6492 -18.1865 -0.312814 -2.76164 34.5598 -21.7967 4.53363 -2.98304 0.0 0.0 0.0 0.0 0.0 
1037.56884415 740.874 -1804.19302882 2.08226190697 44.140049563 4.29311142627 -4.89155 -0.227882 -0.266822 -4.89154 -0.210442 -0.280782 -4.8904 -0.119023 -0.330087 -4.89051 -0.16966 -0.307147 4.38644 11.2888 -2.71693 5.03562 21.8227 -2.5717 -0.0 0.0 -0.0 9.73457 14.1982 17.874 -21.3758 -21.1021 60.0616 0.190924 -5.40298 0.00900874 3.66287 0.114578 -0.453748 9.55722 -19.2062 69.463 -0.0 0.0 -0.0 9.05432 13.0818 -17.6861 -8.77123 53.9738 -33.9008 1.61756 38.702 -0.568111 -24.2833 1.45495 -2.7194 -8.14402 -21.9822 43.537 0.0 0.0 0.0 40.7811 13.5308 -19.4788 -21.3413 0.277286 3.24435 -13.9351 15.1786 2.10016 -15.8076 0.0 0.0 -0.0 0.0 -0.0 13.7983 44.3817 -18.6492 -18.1865 -0.312814 -2.76164 34.5598 -21.7967 4.53363 -2.98304 0.0 0.0 0.0 0.0 0.0 
872.40633373 710.712 -1909.62075412 1.44172294599 41.4088087414 7.34529079727 -4.06417 -0.0125809 -0.876831 -4.06374 0.0432374 -0.875855 -4.06384 0.285848 -0.829028 -4.06477 0.151336 -0.863765 -0.653836 12.9716 8.99364 -0.348906 15.9514 11.0173 -0.0 0.0 -0.0 8.80795 11.7106 16.5021 -22.8053 -21.0283 60.8194 0.270605 -7.63515 0.018057 -4.34874 -0.173375 0.528017 9.77913 -17.7189 76.9973 -0.0 0.0 -0.0 11.2688 11.8503 -22.6189 -10.0181 49.9567 -32.3278 1.65225 39.2964 -0.589942 -27.7412 1.7515 -3.0487 -7.52736 -13.5375 47.4735 0.0 0.0 0.0 36.2319 13.1119 -20.1323 0.310137 -0.0128951 -0.0458458 -11.793 10.8426 1.7633 -18.6585 0.0 0.0 -0.0 0.0 -0.0 9.45344 39.7981 -23.1851 -35.3904 0.199847 -5.34228 37.4386 -15.2945 4.70012 -5.04008 0.0 0.0 0.0 0.0 0.0 
